HIERARCHY
ROOT Hips
{
    OFFSET   0.000000   0.000000   0.000000
    CHANNELS 6 Xposition Yposition Zposition Zrotation Xrotation Yrotation
    JOINT Chest
    {
        OFFSET   0.000000   8.007230   0.000000
        CHANNELS 3 Zrotation Xrotation Yrotation
        JOINT Chest2
        {
            OFFSET   0.000000  22.077100   0.000000
            CHANNELS 3 Zrotation Xrotation Yrotation
            JOINT Neck
            {
                OFFSET   0.000000  23.254800  -0.000021
                CHANNELS 3 Zrotation Xrotation Yrotation
                JOINT Head
                {
                    OFFSET   0.000000  14.370000   1.956610
                    CHANNELS 3 Zrotation Xrotation Yrotation
                    End Site
                    {
                        OFFSET   0.000000  19.566000   0.000000
                    }
                }
            }
            JOINT LeftCollar
            {
                OFFSET   3.911900  19.017000  -0.467063
                CHANNELS 3 Zrotation Xrotation Yrotation
                JOINT LeftShoulder
                {
                    OFFSET  10.383700   0.000000   0.000000
                    CHANNELS 3 Zrotation Xrotation Yrotation
                    JOINT LeftElbow
                    {
                        OFFSET  26.662100   0.001529   0.000325
                        CHANNELS 3 Zrotation Xrotation Yrotation
                        JOINT LeftWrist
                        {
                            OFFSET  28.869000  -0.000011  -0.000096
                            CHANNELS 3 Zrotation Xrotation Yrotation
                            JOINT LeftFinger0
                            {
                                OFFSET   2.044650  -2.323460   3.252850
                                CHANNELS 3 Zrotation Xrotation Yrotation
                                JOINT LeftFinger01
                                {
                                    OFFSET   3.088130   0.000000   0.000000
                                    CHANNELS 3 Zrotation Xrotation Yrotation
                                    JOINT LeftFinger02
                                    {
                                        OFFSET   2.639460   0.000000   0.000000
                                        CHANNELS 3 Zrotation Xrotation Yrotation
                                        End Site
                                        {
                                            OFFSET   2.582190   0.000000   0.000000
                                        }
                                    }
                                }
                            }
                            JOINT LeftFinger1
                            {
                                OFFSET   8.364480   0.000000   3.252850
                                CHANNELS 3 Zrotation Xrotation Yrotation
                                JOINT LeftFinger11
                                {
                                    OFFSET   4.646930   0.000000   0.000000
                                    CHANNELS 3 Zrotation Xrotation Yrotation
                                    JOINT LeftFinger12
                                    {
                                        OFFSET   2.323460   0.000000   0.000000
                                        CHANNELS 3 Zrotation Xrotation Yrotation
                                        End Site
                                        {
                                            OFFSET   2.273050   0.000000   0.000000
                                        }
                                    }
                                }
                            }
                            JOINT LeftFinger2
                            {
                                OFFSET   8.364480   0.000016   1.078090
                                CHANNELS 3 Zrotation Xrotation Yrotation
                                JOINT LeftFinger21
                                {
                                    OFFSET   5.111620   0.000000   0.000000
                                    CHANNELS 3 Zrotation Xrotation Yrotation
                                    JOINT LeftFinger22
                                    {
                                        OFFSET   2.788160   0.000017   0.000000
                                        CHANNELS 3 Zrotation Xrotation Yrotation
                                        End Site
                                        {
                                            OFFSET   2.727660   0.000000   0.000000
                                        }
                                    }
                                }
                            }
                            JOINT LeftFinger3
                            {
                                OFFSET   7.899780   0.000015  -1.078090
                                CHANNELS 3 Zrotation Xrotation Yrotation
                                JOINT LeftFinger31
                                {
                                    OFFSET   4.646920   0.000000   0.000000
                                    CHANNELS 3 Zrotation Xrotation Yrotation
                                    JOINT LeftFinger32
                                    {
                                        OFFSET   2.323470   0.000000   0.000000
                                        CHANNELS 3 Zrotation Xrotation Yrotation
                                        End Site
                                        {
                                            OFFSET   2.273050   0.000000   0.000000
                                        }
                                    }
                                }
                            }
                            JOINT LeftFinger4
                            {
                                OFFSET   7.435090   0.000000  -3.252850
                                CHANNELS 3 Zrotation Xrotation Yrotation
                                JOINT LeftFinger41
                                {
                                    OFFSET   3.717550   0.000000   0.000000
                                    CHANNELS 3 Zrotation Xrotation Yrotation
                                    JOINT LeftFinger42
                                    {
                                        OFFSET   1.858760   0.000000   0.000000
                                        CHANNELS 3 Zrotation Xrotation Yrotation
                                        End Site
                                        {
                                            OFFSET   1.818440   0.000000   0.000000
                                        }
                                    }
                                }
                            }
                        }
                    }
                }
            }
            JOINT RightCollar
            {
                OFFSET  -3.911900  19.017000  -0.467062
                CHANNELS 3 Zrotation Xrotation Yrotation
                JOINT RightShoulder
                {
                    OFFSET -10.383700   0.000015   0.000000
                    CHANNELS 3 Zrotation Xrotation Yrotation
                    JOINT RightElbow
                    {
                        OFFSET -26.662100   0.001341   0.000385
                        CHANNELS 3 Zrotation Xrotation Yrotation
                        JOINT RightWrist
                        {
                            OFFSET -28.869000   0.000025  -0.000080
                            CHANNELS 3 Zrotation Xrotation Yrotation
                            JOINT RightFinger0
                            {
                                OFFSET  -2.044650  -2.323490   3.252850
                                CHANNELS 3 Zrotation Xrotation Yrotation
                                JOINT RightFinger01
                                {
                                    OFFSET  -3.088130   0.000000   0.000000
                                    CHANNELS 3 Zrotation Xrotation Yrotation
                                    JOINT RightFinger02
                                    {
                                        OFFSET  -2.639460   0.000000   0.000000
                                        CHANNELS 3 Zrotation Xrotation Yrotation
                                        End Site
                                        {
                                            OFFSET  -2.582190   0.000000   0.000000
                                        }
                                    }
                                }
                            }
                            JOINT RightFinger1
                            {
                                OFFSET  -8.364480   0.000000   3.252850
                                CHANNELS 3 Zrotation Xrotation Yrotation
                                JOINT RightFinger11
                                {
                                    OFFSET  -4.646930   0.000000   0.000000
                                    CHANNELS 3 Zrotation Xrotation Yrotation
                                    JOINT RightFinger12
                                    {
                                        OFFSET  -2.323470   0.000000   0.000000
                                        CHANNELS 3 Zrotation Xrotation Yrotation
                                        End Site
                                        {
                                            OFFSET  -2.273050   0.000000   0.000000
                                        }
                                    }
                                }
                            }
                            JOINT RightFinger2
                            {
                                OFFSET  -8.364480   0.000000   1.078090
                                CHANNELS 3 Zrotation Xrotation Yrotation
                                JOINT RightFinger21
                                {
                                    OFFSET  -5.111610   0.000000   0.000000
                                    CHANNELS 3 Zrotation Xrotation Yrotation
                                    JOINT RightFinger22
                                    {
                                        OFFSET  -2.788160   0.000000   0.000000
                                        CHANNELS 3 Zrotation Xrotation Yrotation
                                        End Site
                                        {
                                            OFFSET  -2.727660   0.000000   0.000000
                                        }
                                    }
                                }
                            }
                            JOINT RightFinger3
                            {
                                OFFSET  -7.899780   0.000000  -1.078090
                                CHANNELS 3 Zrotation Xrotation Yrotation
                                JOINT RightFinger31
                                {
                                    OFFSET  -4.646920   0.000000   0.000000
                                    CHANNELS 3 Zrotation Xrotation Yrotation
                                    JOINT RightFinger32
                                    {
                                        OFFSET  -2.323470   0.000000   0.000000
                                        CHANNELS 3 Zrotation Xrotation Yrotation
                                        End Site
                                        {
                                            OFFSET  -2.273050   0.000000   0.000000
                                        }
                                    }
                                }
                            }
                            JOINT RightFinger4
                            {
                                OFFSET  -7.435090   0.000000  -3.252850
                                CHANNELS 3 Zrotation Xrotation Yrotation
                                JOINT RightFinger41
                                {
                                    OFFSET  -3.717550   0.000000   0.000000
                                    CHANNELS 3 Zrotation Xrotation Yrotation
                                    JOINT RightFinger42
                                    {
                                        OFFSET  -1.858770   0.000000   0.000000
                                        CHANNELS 3 Zrotation Xrotation Yrotation
                                        End Site
                                        {
                                            OFFSET  -1.818440   0.000000   0.000000
                                        }
                                    }
                                }
                            }
                        }
                    }
                }
            }
        }
    }
    JOINT LeftHip
    {
        OFFSET   9.783010   0.000000   0.000000
        CHANNELS 3 Zrotation Xrotation Yrotation
        JOINT LeftKnee
        {
            OFFSET   0.000070 -41.789100   0.000028
            CHANNELS 3 Zrotation Xrotation Yrotation
            JOINT LeftAnkle
            {
                OFFSET   0.000087 -41.133200  -0.000100
                CHANNELS 3 Zrotation Xrotation Yrotation
                JOINT LeftToe
                {
                    OFFSET   0.000000  -6.358960  14.674500
                    CHANNELS 3 Zrotation Xrotation Yrotation
                    End Site
                    {
                        OFFSET   0.000000   0.000000   3.913200
                    }
                }
            }
        }
    }
    JOINT RightHip
    {
        OFFSET  -9.783020   0.000000   0.000000
        CHANNELS 3 Zrotation Xrotation Yrotation
        JOINT RightKnee
        {
            OFFSET   0.000044 -41.789100  -0.000870
            CHANNELS 3 Zrotation Xrotation Yrotation
            JOINT RightAnkle
            {
                OFFSET  -0.000090 -41.133200  -0.000245
                CHANNELS 3 Zrotation Xrotation Yrotation
                JOINT RightToe
                {
                    OFFSET   0.000000  -6.358960  14.674500
                    CHANNELS 3 Zrotation Xrotation Yrotation
                    End Site
                    {
                        OFFSET   0.000000   0.000000   3.913200
                    }
                }
            }
        }
    }
}
MOTION
Frames: 6
Frame Time:   0.016667
  1.607790  89.549500   0.351066  -1.829520  -6.847900  -6.124590   0.942854   6.503470  -1.039680   2.024950  12.987600  -2.209290  -1.461360  -7.531160  -0.191660  -2.522350 -15.241400  -7.262110  -7.796100  -1.741170   8.747290 -74.430900  13.653200  -1.056690  -1.720760  -1.430650 -18.833100  10.602800 -10.128700  -1.337870  39.404200  33.753700 -51.772600 -33.827500   0.002526   0.001737 -11.913800   0.001820   0.000849 -36.874600  -3.246920   4.318170 -30.270300   0.001266   0.004637 -21.189200  -0.004513   0.004835 -34.434600  -3.601090   5.233610 -51.899100  -0.000732   0.008476 -34.564800  -0.003049   0.005243 -28.390600  -4.941420   9.045290 -41.761000   0.003681   0.008227 -27.812800  -0.005469   0.006490 -33.446900  -6.976360  10.419000 -51.125600   0.001811   0.001205 -34.049600  -0.003919   0.008920   2.723890   0.339575  10.305900  51.304900  -8.677100  64.745800 -13.289800 -14.724100 101.242000 -48.416000  -5.149290  40.404700 -51.839600  32.994900  63.405400   7.529320  -0.004279   0.000621  -1.235330  -0.004343  -0.000810  33.108600  -3.794680  -5.798200  27.246000   0.003101  -0.002296  19.072200   0.003725  -0.000901  28.536800  -3.321810  -6.082080  39.336600   0.002654  -0.002859  26.198200   0.006101  -0.004583  28.614700  -3.330070  -6.077570  43.141900   0.005677  -0.001529  28.732600  -0.000130  -0.002564  32.033400  -5.897380  -9.325850  48.771800   0.003297  -0.004796  32.482000   0.003210  -0.007172   2.534990   9.685360  -0.009250  -0.056057   0.274541  13.100400  -3.281990  -2.952980   0.786414  -0.000000   0.000000  -0.000000  -1.060920   9.385870  -5.833580   0.845112   0.875560 -12.704500   0.606087  -2.278850   5.392660  -0.000000   0.000000  -0.000000
  1.591640  89.549600   0.351062  -1.827430  -6.825070  -6.235880   0.948557   6.503480  -1.065650   2.039080  12.987300  -2.262600  -1.445920  -7.489120  -0.188539  -2.492770 -15.156900  -7.204410  -7.797720  -1.751720   8.683250 -74.254900  13.876500  -1.227900  -1.777280  -1.468210 -19.166200  10.551900 -10.151800  -1.437130  39.457900  33.806100 -51.697500 -33.761100   0.002576   0.001757 -11.880600   0.001784   0.000881 -36.843000  -3.235440   4.308230 -30.245300   0.001292   0.004736 -21.171800  -0.004547   0.004940 -34.496000  -3.598080   5.217240 -51.990200  -0.000737   0.008500 -34.625400  -0.003029   0.005165 -28.391000  -4.941230   9.044120 -41.763400   0.003764   0.008356 -27.814400  -0.005520   0.006607 -33.438600  -6.969100  10.412000 -51.111500   0.001824   0.001209 -34.040200  -0.003946   0.009006   2.720730   0.337610  10.296000  51.438100  -8.571760  64.777100 -13.369500 -14.734300 101.370000 -48.574000  -5.334200  40.183000 -51.808600  32.921500  63.264900   7.573650  -0.004291   0.000629  -1.213170  -0.004418  -0.000825  33.088300  -3.794430  -5.803620  27.229500   0.003146  -0.002232  19.060700   0.003728  -0.000916  28.527000  -3.322440  -6.087070  39.130000   0.002606  -0.002811  26.060600   0.006107  -0.004600  28.635500  -3.336720  -6.078610  43.198300   0.005703  -0.001533  28.770200  -0.000126  -0.002602  32.138300  -5.978070  -9.414310  48.946600   0.003239  -0.004834  32.598400   0.003258  -0.007147   2.519090   9.674520  -0.024246  -0.062947   0.299471  13.085200  -3.276550  -2.980210   0.930373  -0.000000   0.000000  -0.000000  -1.089010   9.349920  -5.886510   0.861513   0.903964 -12.704200   0.604637  -2.301250   5.568210   0.000000   0.000000   0.000000
  1.576320  89.549600   0.351035  -1.808820  -6.799760  -6.319550   0.949892   6.503920  -1.073880   2.043130  12.987700  -2.279180  -1.426590  -7.461070  -0.185265  -2.457840 -15.100900  -7.143550  -7.803110  -1.787750   8.612930 -74.079200  14.067800  -1.391980  -1.821420  -1.477410 -19.495000  10.523200 -10.163400  -1.541520  39.535700  33.860600 -51.606300 -33.701600   0.002627   0.001785 -11.850800   0.001752   0.000916 -36.819500  -3.229040   4.302960 -30.224400   0.001317   0.004836 -21.157100  -0.004580   0.005045 -34.562600  -3.594750   5.199550 -52.088900  -0.000740   0.008522 -34.691200  -0.003010   0.005088 -28.391300  -4.941090   9.043050 -41.766100   0.003849   0.008486 -27.816300  -0.005569   0.006725 -33.429800  -6.964130  10.407600 -51.097300   0.001836   0.001218 -34.030800  -0.003972   0.009091   2.710830   0.323797  10.282800  51.539900  -8.459130  64.832500 -13.425500 -14.739000 101.445000 -48.783900  -5.481920  40.001900 -51.808600  32.905600  63.204900   7.579980  -0.004310   0.000634  -1.210010  -0.004493  -0.000840  33.084700  -3.794180  -5.804580  27.226600   0.003192  -0.002170  19.058600   0.003729  -0.000927  28.517400  -3.322520  -6.088280  38.936400   0.002561  -0.002763  25.931700   0.006114  -0.004618  28.685900  -3.340570  -6.078770  43.300300   0.005729  -0.001537  28.838000  -0.000122  -0.002637  32.275400  -6.035380  -9.452360  49.162300   0.003184  -0.004874  32.742100   0.003308  -0.007123   2.491200   9.655480  -0.058968  -0.067195   0.313419  13.056500  -3.269650  -2.997270   1.077700   0.000000   0.000000   0.000000  -1.125220   9.314470  -5.940970   0.879983   0.925359 -12.701400   0.598573  -2.326680   5.670800   0.000000   0.000000  -0.000000
  1.562700  89.549500   0.350387  -1.779570  -6.771770  -6.369130   0.937760   6.515830  -1.053230   2.016540  13.012100  -2.236330  -1.402680  -7.440680  -0.181561  -2.416440 -15.060300  -7.099180  -7.821970  -1.858210   8.520060 -73.899400  14.203300  -1.541610  -1.862690  -1.458300 -19.816300  10.526300 -10.183300  -1.659060  39.571200  33.866800 -51.453500 -33.658800   0.002689   0.001843 -11.829400   0.001726   0.000967 -36.810300  -3.250400   4.332290 -30.216700   0.001340   0.004937 -21.151000  -0.004609   0.005148 -34.643800  -3.590580   5.178130 -52.209300  -0.000741   0.008542 -34.771400  -0.002992   0.005010 -28.391600  -4.941010   9.042050 -41.800400   0.003932   0.008618 -27.839100  -0.005617   0.006845 -33.433100  -6.986500  10.438800 -51.108300   0.001848   0.001230 -34.038100  -0.003996   0.009177   2.700480   0.265588  10.260900  51.540000  -8.366580  64.901000 -13.422200 -14.750900 101.452000 -49.078100  -5.534750  39.952300 -51.841800  32.933500  63.214500   7.460260  -0.004319   0.000626  -1.269870  -0.004571  -0.000873  33.136900  -3.793970  -5.790660  27.269000   0.003237  -0.002111  19.088200   0.003730  -0.000925  28.508700  -3.315550  -6.077620  38.760400   0.002517  -0.002720  25.814500   0.006115  -0.004644  28.764400  -3.338140  -6.053900  43.417700   0.005744  -0.001544  28.916200  -0.000113  -0.002662  32.437300  -6.048150  -9.415960  49.404600   0.003131  -0.004915  32.903500   0.003364  -0.007096   2.463880   9.637330  -0.111996  -0.077600   0.312685  13.028800  -3.262180  -3.000160   1.211630  -0.000000   0.000000  -0.000000  -1.168720   9.271990  -5.981020   0.891172   0.935804 -12.656500   0.589342  -2.349180   5.682780   0.000000   0.000000   0.000000
  1.550920  89.549200   0.349762  -1.746920  -6.746550  -6.385920   0.918057   6.537970  -1.012540   1.972570  13.057600  -2.152370  -1.379720  -7.432620  -0.178493  -2.378080 -15.045100  -7.052480  -7.856410  -1.946360   8.427100 -73.726700  14.309400  -1.682680  -1.900540  -1.439380 -20.118500  10.539000 -10.224500  -1.770160  39.559900  33.833000 -51.259100 -33.627700   0.002752   0.001900 -11.813900   0.001700   0.001022 -36.801700  -3.300290   4.400090 -30.214400   0.001363   0.005038 -21.149300  -0.004637   0.005252 -34.726500  -3.586260   5.156340 -52.332000  -0.000741   0.008558 -34.853100  -0.002973   0.004934 -28.391900  -4.940980   9.041100 -41.851800   0.004017   0.008750 -27.873300  -0.005663   0.006967 -33.436800  -7.036740  10.510400 -51.127400   0.001860   0.001245 -34.050900  -0.004020   0.009262   2.681420   0.182309  10.246400  51.485000  -8.286390  64.990400 -13.414300 -14.761300 101.442000 -49.423100  -5.558000  39.946500 -51.878800  32.955100  63.231300   7.340550  -0.004329   0.000619  -1.329730  -0.004650  -0.000908  33.210000  -3.793760  -5.771120  27.328300   0.003280  -0.002053  19.129800   0.003732  -0.000922  28.504900  -3.306570  -6.062600  38.668000   0.002472  -0.002677  25.752900   0.006117  -0.004672  28.851400  -3.335700  -6.029030  43.540700   0.005758  -0.001553  28.998100  -0.000103  -0.002689  32.588000  -6.060920  -9.379570  49.628800   0.003077  -0.004957  33.052800   0.003419  -0.007070   2.439010   9.619780  -0.167058  -0.091894   0.311961  12.992700  -3.255850  -3.001890   1.323870   0.000000   0.000000   0.000000  -1.210840   9.246760  -6.007430   0.903097   0.938423 -12.614000   0.580757  -2.367830   5.684550  -0.000000   0.000000   0.000000
  1.542090  89.546800   0.349839  -1.723450  -6.728300  -6.375760   0.903795   6.560200  -0.968503   1.939160  13.103200  -2.062290  -1.361450  -7.433910  -0.177317  -2.350850 -15.049600  -6.981180  -7.907610  -2.034980   8.356590 -73.567200  14.406500  -1.818060  -1.931910  -1.439150 -20.392300  10.533100 -10.319400  -1.857210  39.550600  33.800000 -51.063500 -33.608100   0.002806   0.001918 -11.804100   0.001666   0.001068 -36.794900  -3.374840   4.499970 -30.213400   0.001383   0.005138 -21.148900  -0.004666   0.005357 -34.802100  -3.582070   5.136400 -52.444100  -0.000741   0.008573 -34.927700  -0.002952   0.004863 -28.392100  -4.941000   9.040150 -41.901400   0.004103   0.008881 -27.906300  -0.005708   0.007090 -33.436700  -7.108830  10.615100 -51.149100   0.001872   0.001264 -34.065300  -0.004042   0.009346   2.640050   0.110985  10.264200  51.366300  -8.219970  65.105800 -13.384400 -14.795800 101.336000 -49.816600  -5.589130  40.097200 -51.734600  32.816000  63.056000   7.421820  -0.004347   0.000627  -1.289090  -0.004728  -0.000936  33.237700  -3.793410  -5.763650  27.350800   0.003315  -0.001997  19.145600   0.003740  -0.000931  28.508900  -3.304590  -6.056700  38.689800   0.002419  -0.002632  25.767400   0.006122  -0.004697  28.924700  -3.356170  -6.052130  43.652800   0.005783  -0.001564  29.072800  -0.000097  -0.002731  32.678800  -6.133980  -9.454370  49.786000   0.003015  -0.004997  33.157500   0.003465  -0.007053   2.425530   9.603510  -0.204895  -0.106199   0.319155  12.946300  -3.253100  -3.010570   1.405490   0.000000   0.000000   0.000000  -1.242220   9.249170  -6.012860   0.918798   0.917893 -12.629200   0.575162  -2.377960   5.680530   0.000000   0.000000  -0.000000
